<svg width="34" height="34" viewBox="0 0 34 34" fill="none" xmlns="http://www.w3.org/2000/svg">
<path d="M23.2459 2.80416C25.2525 2.67875 27.2312 3.37546 28.7222 4.74103C30.0877 6.232 30.7845 8.21067 30.673 10.2311V23.2458C30.7984 25.2663 30.0877 27.2449 28.7361 28.7359C27.2451 30.1015 25.2525 30.7982 23.2459 30.6728H10.2312C8.2107 30.7982 6.23202 30.1015 4.74103 28.7359C3.37546 27.2449 2.67874 25.2663 2.80415 23.2458V10.2311C2.67874 8.21067 3.37546 6.232 4.74103 4.74103C6.23202 3.37546 8.2107 2.67875 10.2312 2.80416H23.2459ZM22.8836 9.17213C22.0197 8.30821 20.6263 8.30821 19.7623 9.17213L18.8287 10.1197C18.6894 10.259 18.6894 10.4959 18.8287 10.6352C18.8287 10.6352 18.8561 10.6624 18.9048 10.7108L19.2475 11.0517C19.4458 11.2489 19.6932 11.4953 19.9417 11.743L20.7844 12.5852C20.9602 12.7619 21.0768 12.8802 21.0861 12.8926C21.2394 13.0598 21.3369 13.2828 21.3369 13.5336C21.3369 14.0352 20.9328 14.4532 20.4172 14.4532C20.1804 14.4532 19.9574 14.3557 19.8041 14.2024L17.4771 11.8893C17.3656 11.7778 17.1705 11.7778 17.0591 11.8893L10.4123 18.536C9.9525 18.9958 9.68775 19.6089 9.67382 20.2638L9.59021 23.5663C9.59021 23.7474 9.64595 23.9146 9.77136 24.04C9.89677 24.1654 10.064 24.2351 10.2451 24.2351H13.5197C14.1886 24.2351 14.8296 23.9704 15.3173 23.4966L24.6951 14.0909C25.5451 13.227 25.5451 11.8336 24.6951 10.9836L22.8836 9.17213Z" fill="#5D7285"/>
</svg>
