<svg width="35" height="35" viewBox="0 0 35 35" fill="none" xmlns="http://www.w3.org/2000/svg">
<path d="M13.132 29.8633V25.4676C13.132 24.3455 14.0483 23.4358 15.1786 23.4358H19.3105C19.8533 23.4358 20.3738 23.6499 20.7576 24.0309C21.1415 24.4119 21.3571 24.9287 21.3571 25.4676V29.8633C21.3537 30.3298 21.5379 30.7784 21.869 31.1095C22.2001 31.4405 22.6506 31.6267 23.1205 31.6267H25.9395C27.256 31.6301 28.5198 31.1133 29.452 30.1903C30.3841 29.2673 30.908 28.0141 30.908 26.7071V14.1844C30.908 13.1286 30.4366 12.1272 29.6208 11.4498L20.0313 3.84674C18.3632 2.51366 15.9731 2.5567 14.3548 3.94896L4.98412 11.4498C4.12981 12.1072 3.6192 13.1116 3.59396 14.1844V26.6943C3.59396 29.4184 5.81845 31.6267 8.56249 31.6267H11.3171C12.2931 31.6267 13.0863 30.845 13.0934 29.8761L13.132 29.8633Z" fill="#5D7285"/>
</svg>