<svg width="29" height="28" viewBox="0 0 29 28" fill="none" xmlns="http://www.w3.org/2000/svg">
<path d="M13.2411 0C16.704 0 19.5282 2.77579 19.5282 6.19323V12.8747H11.013C10.4027 12.8747 9.92021 13.3489 9.92021 13.9487C9.92021 14.5346 10.4027 15.0228 11.013 15.0228H19.5282V21.6903C19.5282 25.1077 16.704 27.8974 13.2128 27.8974H6.30125C2.82421 27.8974 0 25.1216 0 21.7042V6.20718C0 2.77579 2.8384 0 6.31544 0H13.2411ZM23.0715 9.13669C23.4899 8.70428 24.1734 8.70428 24.5919 9.12274L28.6649 13.1818C28.8741 13.391 28.9857 13.6561 28.9857 13.949C28.9857 14.228 28.8741 14.5069 28.6649 14.7022L24.5919 18.7613C24.3826 18.9705 24.1037 19.0821 23.8386 19.0821C23.5597 19.0821 23.2807 18.9705 23.0715 18.7613C22.653 18.3428 22.653 17.6594 23.0715 17.2409L25.3033 15.023H19.5285V12.8749H25.3033L23.0715 10.6571C22.653 10.2386 22.653 9.55515 23.0715 9.13669Z" fill="white"/>
</svg>
