<svg width="34" height="34" viewBox="0 0 34 34" fill="none" xmlns="http://www.w3.org/2000/svg">
<path d="M22.5844 2.78975C26.8931 2.78975 29.2923 5.27262 29.2923 9.52698V23.936C29.2923 28.2601 26.8931 30.6872 22.5844 30.6872H10.8939C6.65352 30.6872 4.1846 28.2601 4.1846 23.936V9.52698C4.1846 5.27262 6.65352 2.78975 10.8939 2.78975H22.5844ZM11.2705 21.9553C10.8521 21.9134 10.4476 22.1087 10.2244 22.4714C10.0012 22.8201 10.0012 23.2804 10.2244 23.6431C10.4476 23.9918 10.8521 24.201 11.2705 24.1452H22.2063C22.7629 24.0894 23.1828 23.6138 23.1828 23.0572C23.1828 22.4853 22.7629 22.0111 22.2063 21.9553H11.2705ZM22.2063 15.5933H11.2705C10.6694 15.5933 10.1825 16.0829 10.1825 16.6827C10.1825 17.2825 10.6694 17.7707 11.2705 17.7707H22.2063C22.8061 17.7707 23.2943 17.2825 23.2943 16.6827C23.2943 16.0829 22.8061 15.5933 22.2063 15.5933ZM15.4398 9.2759H11.2705V9.28985C10.6694 9.28985 10.1825 9.77805 10.1825 10.3778C10.1825 10.9776 10.6694 11.4658 11.2705 11.4658H15.4398C16.041 11.4658 16.5292 10.9776 16.5292 10.3625C16.5292 9.7641 16.041 9.2759 15.4398 9.2759Z" fill="#5D7285"/>
</svg>
